<?xml version="1.0" encoding="UTF-8"?>
<svg width="93px" height="90px" viewBox="0 0 93 90" version="1.1" xmlns="http://www.w3.org/2000/svg" xmlns:xlink="http://www.w3.org/1999/xlink">
    <!-- Generator: Sketch 53.2 (72643) - https://sketchapp.com -->
    <title>logo</title>
    <desc>Created with Sketch.</desc>
    <defs>
        <ellipse id="path-1" cx="45.8417266" cy="45.7297297" rx="45.8417266" ry="45.7297297"></ellipse>
    </defs>
    <g id="AnyStream" stroke="none" stroke-width="1" fill="none" fill-rule="evenodd">
        <g id="logo-100" transform="translate(-4.000000, -7.000000)">
            <g id="logo" transform="translate(-8.000000, 5.000000)">
                <g transform="translate(12.733813, 1.693694)">
                    <mask id="mask-2" fill="white">
                        <use xlink:href="#path-1"></use>
                    </mask>
                    <g id="Mask"></g>
                    <g mask="url(#mask-2)">
                        <g transform="translate(47.539374, 45.328476) rotate(1.000000) translate(-47.539374, -45.328476) translate(-11.885086, 0.022169)">
                            <path d="M1.78619093,63.602696 C55.0231928,54.8101848 79.1242745,73.297476 115.68001,69.4082971 L115.966047,85.755313 C86.5024218,100.176419 55.7493622,71.3914641 1.78619093,71.3914641 L1.78619093,63.602696 Z" id="wave3" fill="#003241" transform="translate(58.876119, 75.500969) scale(-1, -1) translate(-58.876119, -75.500969) "></path>
                            <path d="M1.31533944,22.3351272 C80.8883772,27.2465578 54.107119,39.4414984 115.450888,39.4414984 L115.949157,67.9175184 C45.8337625,64.6442924 63.3554439,51.5906317 1.78619093,49.2442876 L1.31533944,22.3351272 Z" id="wave2" fill="#0094C1"></path>
                            <path d="M0.26010349,2.58329597 C53.4971053,-6.20921523 78.3338267,11.2508864 114.889562,7.36170751 L115.191145,24.5971708 C85.7275198,39.0182772 54.3417757,9.35562042 0.378604365,9.35562042 L0.26010349,2.58329597 Z" id="wave1" fill="#00C5C7"></path>
                            <path d="M0.00163633168,8.01256993 C53.2386382,-0.77994127 80.3206697,13.9368214 116.876405,10.0476425 L114.932678,30.0264448 C85.4690527,44.4475512 54.0833085,14.7848944 0.120137207,14.7848944 L0.00163633168,8.01256993 Z" id="wave1" fill="#007D7E" transform="translate(58.439021, 19.571352) scale(1, -1) translate(-58.439021, -19.571352) "></path>
                            <path d="M1.51924258,41.7734461 C54.7562444,32.9809349 79.8142462,47.6624543 116.369982,43.7732754 L118.165234,69.2585893 C88.664612,82.2239761 55.4824139,49.5622143 1.51924258,49.5622143 L1.51924258,41.7734461 Z" id="wave4" fill="#066886" transform="translate(59.842238, 55.609672) scale(1, -1) translate(-59.842238, -55.609672) "></path>
                        </g>
                    </g>
                </g>
            </g>
        </g>
    </g>
</svg>