<?xml version="1.0" encoding="UTF-8"?>
<svg width="600px" height="150px" viewBox="0 0 600 150" version="1.1" xmlns="http://www.w3.org/2000/svg" xmlns:xlink="http://www.w3.org/1999/xlink">
    <!-- Generator: Sketch 53.2 (72643) - https://sketchapp.com -->
    <title>logo</title>
    <desc>Created with Sketch.</desc>
    <defs>
        <linearGradient x1="100%" y1="50%" x2="0%" y2="50%" id="linearGradient-1">
            <stop stop-color="#FF7900" offset="0%"></stop>
            <stop stop-color="#FF1E25" offset="100%"></stop>
        </linearGradient>
    </defs>
    <g id="logo" stroke="none" stroke-width="1" fill="none" fill-rule="evenodd">
        <path d="M40.7893601,126.186017 C35.890798,126.186017 31.4965655,124.965054 27.6065308,122.523093 C23.7164961,120.081132 20.6429346,116.777351 18.385754,112.611652 C16.1285734,108.445953 15,103.681806 15,98.3190675 L15,29.2262711 C15,27.3110073 15.6243172,25.7309384 16.8729703,24.4860169 C18.1216234,23.2410954 19.7064286,22.618644 21.6274333,22.618644 C23.6444883,22.618644 25.2773179,23.2410954 26.525971,24.4860169 C27.7746241,25.7309384 28.3989413,27.3110073 28.3989413,29.2262711 L28.3989413,98.3190675 C28.3989413,102.532648 29.5755391,106.027952 31.9287699,108.805084 C34.2820008,111.582217 37.2355013,112.970762 40.7893601,112.970762 L45.3997485,112.970762 C47.0326026,112.970762 48.401298,113.593214 49.5058757,114.838135 C50.6104535,116.083057 51.162734,117.663126 51.162734,119.578389 C51.162734,121.493653 50.4423681,123.073722 49.0016145,124.318644 C47.5608609,125.563565 45.7359337,126.186017 43.5267782,126.186017 L40.7893601,126.186017 Z M15.0492282,61.9771185 L15.0492282,50.4855931 L41.9419572,50.4855931 C43.7669118,50.4855931 45.2556681,51.0122827 46.408271,52.0656778 C47.5608739,53.1190729 48.1371667,54.5554992 48.1371667,56.3749999 C48.1371667,57.9072109 47.5608739,59.223935 46.408271,60.3252117 C45.2556681,61.4264884 43.7669118,61.9771185 41.9419572,61.9771185 L15.0492282,61.9771185 Z M107.904129,126.760593 C100.22011,126.760593 93.3766329,125.060822 87.373493,121.661228 C81.370353,118.261635 76.6639619,113.569309 73.2541785,107.58411 C69.844395,101.59891 68.1395288,94.7280046 68.1395288,86.9711862 C68.1395288,79.1186046 69.844395,72.1998179 73.2541785,66.2146185 C76.6639619,60.2294191 81.370353,55.5370931 87.373493,52.1374999 C93.3766329,48.7379066 100.22011,47.0381355 107.904129,47.0381355 C115.588148,47.0381355 122.407613,48.7379066 128.362727,52.1374999 C134.317842,55.5370931 139.024233,60.2294191 142.482042,66.2146185 C145.93985,72.1998179 147.668729,79.1186046 147.668729,86.9711862 C147.668729,94.7280046 145.963863,101.59891 142.554079,107.58411 C139.144296,113.569309 134.461917,118.261635 128.506802,121.661228 C122.551687,125.060822 115.684198,126.760593 107.904129,126.760593 Z M107.904129,114.838135 C113.090842,114.838135 117.701184,113.641113 121.735294,111.247034 C125.769404,108.852954 128.939014,105.573114 131.24422,101.407415 C133.549426,97.2417162 134.702011,92.429688 134.702011,86.9711862 C134.702011,81.5126843 133.549426,76.6767158 131.24422,72.4631354 C128.939014,68.249555 125.769404,64.9457745 121.735294,62.5516948 C117.701184,60.157615 113.090842,58.9605931 107.904129,58.9605931 C102.717416,58.9605931 98.1070736,60.157615 94.0729636,62.5516948 C90.0388536,64.9457745 86.8692433,68.249555 84.5640375,72.4631354 C82.2588318,76.6767158 81.1062462,81.5126843 81.1062462,86.9711862 C81.1062462,92.429688 82.2588318,97.2417162 84.5640375,101.407415 C86.8692433,105.573114 90.0388536,108.852954 94.0729636,111.247034 C98.1070736,113.641113 102.717416,114.838135 107.904129,114.838135 Z M208.300139,126.760593 C200.61612,126.760593 193.772643,125.060822 187.769503,121.661228 C181.766363,118.261635 177.059972,113.569309 173.650188,107.58411 C170.240405,101.59891 168.535539,94.7280046 168.535539,86.9711862 C168.535539,79.1186046 170.240405,72.1998179 173.650188,66.2146185 C177.059972,60.2294191 181.766363,55.5370931 187.769503,52.1374999 C193.772643,48.7379066 200.61612,47.0381355 208.300139,47.0381355 C215.984158,47.0381355 222.803623,48.7379066 228.758737,52.1374999 C234.713852,55.5370931 239.420243,60.2294191 242.878052,66.2146185 C246.33586,72.1998179 248.064739,79.1186046 248.064739,86.9711862 C248.064739,94.7280046 246.359873,101.59891 242.950089,107.58411 C239.540306,113.569309 234.857927,118.261635 228.902812,121.661228 C222.947697,125.060822 216.080208,126.760593 208.300139,126.760593 Z M208.300139,114.838135 C213.486852,114.838135 218.097194,113.641113 222.131304,111.247034 C226.165414,108.852954 229.335024,105.573114 231.64023,101.407415 C233.945436,97.2417162 235.098021,92.429688 235.098021,86.9711862 C235.098021,81.5126843 233.945436,76.6767158 231.64023,72.4631354 C229.335024,68.249555 226.165414,64.9457745 222.131304,62.5516948 C218.097194,60.157615 213.486852,58.9605931 208.300139,58.9605931 C203.113426,58.9605931 198.503084,60.157615 194.468974,62.5516948 C190.434864,64.9457745 187.265253,68.249555 184.960048,72.4631354 C182.654842,76.6767158 181.502256,81.5126843 181.502256,86.9711862 C181.502256,92.429688 182.654842,97.2417162 184.960048,101.407415 C187.265253,105.573114 190.434864,108.852954 194.468974,111.247034 C198.503084,113.641113 203.113426,114.838135 208.300139,114.838135 Z M291.119043,126.186017 C286.988883,126.186017 283.339028,125.060816 280.169371,122.810381 C276.999713,120.559946 274.526456,117.49557 272.749527,113.617161 C270.972597,109.738751 270.084146,105.261889 270.084146,100.18644 L270.084146,20.6076271 C270.084146,18.5966001 270.684451,16.9925907 271.885079,15.7955508 C273.085707,14.598511 274.694524,14 276.711579,14 C278.728634,14 280.337452,14.598511 281.53808,15.7955508 C282.738708,16.9925907 283.339013,18.5966001 283.339013,20.6076271 L283.339013,100.18644 C283.339013,103.921205 284.059379,106.985581 285.500132,109.379661 C286.940886,111.77374 288.813837,112.970762 291.119043,112.970762 L294.720909,112.970762 C296.545863,112.970762 297.986595,113.569273 299.043148,114.766313 C300.099701,115.963353 300.627969,117.567362 300.627969,119.578389 C300.627969,121.589416 299.811554,123.193426 298.1787,124.390466 C296.545846,125.587506 294.480797,126.186017 291.983491,126.186017 L291.119043,126.186017 Z M330.571481,98.3190675 L322.359227,89.2694913 L368.319036,48.3309321 C369.66374,47.0860106 371.128484,46.4874997 372.713313,46.5353812 C374.298142,46.5832628 375.666837,47.2775356 376.81944,48.6182202 C378.068093,49.9589049 378.668398,51.4192716 378.620373,52.9993643 C378.572348,54.5794569 377.875994,55.9919428 376.531291,57.2368643 L330.571481,98.3190675 Z M324.808496,126.186017 C322.887491,126.186017 321.326698,125.587506 320.12607,124.390466 C318.925442,123.193426 318.325137,121.637297 318.325137,119.722034 L318.325137,20.463983 C318.325137,18.5487192 318.925442,16.9925907 320.12607,15.7955508 C321.326698,14.598511 322.887491,14 324.808496,14 C326.825551,14 328.434368,14.598511 329.634996,15.7955508 C330.835624,16.9925907 331.435929,18.5487192 331.435929,20.463983 L331.435929,119.722034 C331.435929,121.637297 330.835624,123.193426 329.634996,124.390466 C328.434368,125.587506 326.825551,126.186017 324.808496,126.186017 Z M376.963515,125.467796 C375.522761,126.616955 373.937956,127.119704 372.209052,126.976059 C370.480147,126.832414 369.039415,126.04238 367.886812,124.605932 L337.775213,87.5457625 L346.99599,78.9271184 L377.827962,116.705508 C378.980565,118.046193 379.484821,119.5305 379.340746,121.158474 C379.196671,122.786448 378.404268,124.222875 376.963515,125.467796 Z M411.949639,126.186017 C409.932584,126.186017 408.299754,125.563565 407.051101,124.318644 C405.802448,123.073722 405.178131,121.445772 405.178131,119.434745 L405.178131,54.3639829 C405.178131,52.3529559 405.802448,50.7250061 407.051101,49.4800846 C408.299754,48.2351632 409.932584,47.6127118 411.949639,47.6127118 C413.966694,47.6127118 415.599524,48.2351632 416.848177,49.4800846 C418.09683,50.7250061 418.721147,52.3529559 418.721147,54.3639829 L418.721147,119.434745 C418.721147,121.445772 418.09683,123.073722 416.848177,124.318644 C415.599524,125.563565 413.966694,126.186017 411.949639,126.186017 Z M478.776258,126.186017 C473.877696,126.186017 469.483464,124.965054 465.593429,122.523093 C461.703394,120.081132 458.629833,116.777351 456.372652,112.611652 C454.115472,108.445953 452.986898,103.681806 452.986898,98.3190675 L452.986898,29.2262711 C452.986898,27.3110073 453.611216,25.7309384 454.859869,24.4860169 C456.108522,23.2410954 457.693327,22.618644 459.614332,22.618644 C461.631387,22.618644 463.264216,23.2410954 464.512869,24.4860169 C465.761522,25.7309384 466.38584,27.3110073 466.38584,29.2262711 L466.38584,98.3190675 C466.38584,102.532648 467.562437,106.027952 469.915668,108.805084 C472.268899,111.582217 475.2224,112.970762 478.776258,112.970762 L483.386647,112.970762 C485.019501,112.970762 486.388196,113.593214 487.492774,114.838135 C488.597352,116.083057 489.149632,117.663126 489.149632,119.578389 C489.149632,121.493653 488.429266,123.073722 486.988513,124.318644 C485.547759,125.563565 483.722832,126.186017 481.513677,126.186017 L478.776258,126.186017 Z M453.015406,61.9771185 L453.015406,50.4855931 L479.928856,50.4855931 C481.75381,50.4855931 483.242566,51.0122827 484.395169,52.0656778 C485.547772,53.1190729 486.124065,54.5554992 486.124065,56.3749999 C486.124065,57.9072109 485.547772,59.223935 484.395169,60.3252117 C483.242566,61.4264884 481.75381,61.9771185 479.928856,61.9771185 L453.015406,61.9771185 Z M516.935802,49.1276677 C519.714396,46.62581 523.995049,46.8501495 526.496906,49.628744 L542.19471,67.0629216 C544.696568,69.8415161 544.472229,74.1221685 541.693634,76.6240263 C538.91504,79.125884 534.634387,78.9015445 532.13253,76.12295 L516.434725,58.6887724 C513.932868,55.9101779 514.157207,51.6295255 516.935802,49.1276677 Z M516.982508,123.705338 C515.484321,122.356364 514.8016,120.675641 514.934327,118.663117 C515.067053,116.650594 515.989698,114.693349 517.702289,112.791323 L573.116579,51.2475193 C574.829171,49.3454938 576.679251,48.2233153 578.666876,47.8809501 C580.654501,47.5385849 582.397381,48.0418818 583.895569,49.3908558 C585.393756,50.7398299 586.076477,52.4205535 585.94375,54.433077 C585.811024,56.4456005 584.888379,58.4028457 583.175787,60.3048712 L527.761498,121.848675 C526.048906,123.7507 524.198826,124.872879 522.211201,125.215244 C520.223576,125.557609 518.480696,125.054312 516.982508,123.705338 Z M558.668362,95.8602278 C561.446956,93.35837 565.727609,93.5827095 568.229466,96.361304 L583.92727,113.795482 C586.429128,116.574076 586.204789,120.854729 583.426194,123.356586 C580.6476,125.858444 576.366947,125.634105 573.86509,122.85551 L558.167286,105.421332 C555.665428,102.642738 555.889767,98.3620855 558.668362,95.8602278 Z" id="toolkit" fill="url(#linearGradient-1)" fill-rule="nonzero"></path>
    </g>
</svg>